<svg width="36" height="36" viewBox="0 0 36 36" fill="none" xmlns="http://www.w3.org/2000/svg">
<path d="M35.8147 21.2403C35.3027 21.4743 33.9774 21.9951 32.0407 22.1267H32.0349C32.0173 22.1267 31.9968 22.1296 31.9764 22.1296C31.9296 22.1326 31.8798 22.1355 31.8301 22.1413L31.5551 21.9892L30.7447 21.5445L26.7396 21.7727L25.9819 22.2262L25.5986 22.4544C25.3324 22.4661 25.1803 22.4719 25.1803 22.4719H9.69823L9.39982 22.3637L8.31151 21.96H5.31867L3.97583 22.3081L3.34099 22.4749C3.34099 22.4749 3.33514 22.4749 3.32051 22.4749C3.05428 22.469 0.380322 22.4134 0.0175531 21.8868C0.0175531 21.8868 0 21.7259 0 21.4655C0 21.4246 0 21.3836 0 21.3397C0.00585112 21.0706 0.0263299 20.7195 0.0936178 20.3363C0.166757 19.9004 0.295481 19.4176 0.517824 18.9554C0.690432 18.5897 0.921551 18.2328 1.22873 17.9198C1.38964 17.753 1.57395 17.5979 1.78167 17.4604C3.85881 16.0767 6.5591 16.5945 8.04821 16.0767C9.53732 15.5588 14.0602 12.7181 16.2164 12.2354C19.4696 11.5069 23.5186 12.6859 24.5571 12.8585C25.5957 13.0311 29.1591 14.8304 30.8559 15.0732C31.6721 15.1902 32.4064 15.2341 33.0237 15.3687C33.5006 15.4711 33.9072 15.629 34.2232 15.9157C34.232 15.9245 34.2407 15.9304 34.2495 15.9392C34.3636 16.0445 34.4689 16.1703 34.5596 16.3166C34.7264 16.5886 34.9048 17.0304 35.0775 17.5394C35.3934 18.4727 35.6918 19.6312 35.8703 20.3714C35.92 20.5762 35.961 20.7488 35.9902 20.8746C36.0283 21.0238 35.9522 21.1759 35.8147 21.2403Z" fill="#CC3B1B"/>
<path opacity="0.35" d="M10.2334 21.1145C10.2334 21.2051 10.2948 21.2812 10.3767 21.2841C11.5792 21.3251 20.0691 21.606 21.7981 21.2783C23.6617 20.9272 25.3468 19.8711 25.3468 19.8711C25.3468 19.8711 23.0737 20.1168 19.3231 20.3304C15.9265 20.5235 11.231 20.8804 10.3738 20.9448C10.2948 20.9506 10.2334 21.0238 10.2334 21.1145Z" fill="#FF7759"/>
<path opacity="0.35" d="M2.55078 17.2352C2.55078 17.2352 4.96144 16.7729 6.87476 16.574C8.78515 16.3721 9.33223 15.8953 9.33223 15.8953C9.33223 15.8953 8.65057 17.0216 6.94205 17.0743C5.23644 17.1211 2.55078 17.2352 2.55078 17.2352Z" fill="#FF7759"/>
<path opacity="0.35" d="M2.98438 20.3537C2.98438 20.3537 3.55193 18.9816 4.46471 18.5077C5.37748 18.0338 6.98947 18.0572 6.98947 18.0572C6.98947 18.0572 5.16977 17.633 4.25992 18.2093C3.34714 18.7827 2.98438 20.3537 2.98438 20.3537Z" fill="#FF7759"/>
<path opacity="0.35" d="M26.3535 18.7361C26.3535 18.7361 27.1961 17.9842 28.6735 18.0544C30.1538 18.1217 30.8589 18.897 30.8589 18.897C30.8589 18.897 30.3118 17.8409 28.9017 17.5834C27.4916 17.326 26.3535 18.7361 26.3535 18.7361Z" fill="#FF7759"/>
<path opacity="0.35" d="M34.2526 15.9333L31.9941 16.3984C31.9941 16.3984 18.6389 17.1883 16.1142 17.4136C13.5865 17.6447 11.9043 17.8027 11.9043 17.8027C11.9043 17.8027 14.7538 17.0274 18.0275 16.6647C21.3012 16.3019 26.2571 15.6495 26.2571 15.6495C26.2571 15.6495 30.8853 15.3745 33.0239 15.3599H33.0268C33.5037 15.4623 33.9104 15.6202 34.2263 15.9069C34.2351 15.9186 34.2439 15.9245 34.2526 15.9333Z" fill="#FF7759"/>
<path d="M27.3892 14.5787L27.3424 14.6226L26.2541 15.6524L22.3601 15.8601L10.8656 16.4745L9.05762 16.571L10.7837 15.4886L10.8656 15.4359C10.8656 15.4359 14.0252 13.7801 15.5875 13.1979C17.1526 12.6157 20.125 12.6157 21.2894 12.8C22.1641 12.9375 22.3806 12.9726 22.4362 12.9785L22.4538 12.9814L27.3892 14.5787Z" fill="#4D4D4D"/>
<path opacity="0.25" d="M27.3887 14.5787L27.3419 14.6226C26.8123 14.7601 26.2185 14.7455 25.6655 14.6958C23.7171 14.5173 21.795 14.0492 19.8407 14.0551C18.1088 14.0609 16.3769 14.45 14.8058 15.1843C13.8872 15.6144 12.9891 16.1702 11.9768 16.2346C11.5175 16.179 11.0787 15.8806 10.7832 15.4886L10.8651 15.4359C10.8651 15.4359 14.0247 13.7801 15.587 13.1979C17.1521 12.6157 20.1245 12.6157 21.2889 12.8C22.1636 12.9375 22.3801 12.9726 22.4357 12.9785L22.4533 12.9814L27.3887 14.5787Z" fill="white"/>
<path d="M8.83496 16.6413L10.8331 15.3892C10.8682 15.3716 14.0161 13.7216 15.5637 13.1453C17.1582 12.5514 20.1861 12.5689 21.2949 12.7445C22.1697 12.882 22.3862 12.9171 22.4417 12.9229L22.4622 12.9259L27.4971 14.5525L26.2771 15.7081H26.2567L8.83496 16.6413ZM19.4781 12.7532C18.1821 12.7532 16.6082 12.882 15.6076 13.2535C14.0659 13.8269 10.9238 15.4711 10.8946 15.4886L9.27965 16.5009L26.2333 15.594L27.2806 14.6022L22.4271 13.037C22.3744 13.0282 22.155 12.9961 21.2832 12.8586C20.8795 12.7942 20.2242 12.7532 19.4781 12.7532Z" fill="#611C0D"/>
<path d="M22.5128 22.472H10.8076V15.4038L10.8398 15.3863C10.872 15.3687 14.0199 13.7216 15.5675 13.1453C17.1619 12.5514 20.1899 12.5689 21.2987 12.7445C22.1734 12.882 22.3899 12.9171 22.4455 12.9229L22.5157 12.9376L22.3899 16.7876L22.5128 22.472ZM10.9246 22.4164H22.3958L22.2729 16.7876L22.3021 15.8602L22.3928 13.0341C22.3021 13.0195 22.0388 12.9785 21.2782 12.8586C20.1782 12.686 17.1795 12.6684 15.6055 13.2535C14.1457 13.7977 11.2552 15.2985 10.9217 15.4711V22.4164H10.9246Z" fill="#611C0D"/>
<path d="M4.56168 17.4487C4.16381 18.028 3.58162 18.4844 2.91167 18.695C2.1481 18.932 1.32894 18.9261 0.521484 18.9495C0.565368 18.8588 0.612177 18.7652 0.664837 18.6745C0.816966 18.4054 1.0042 18.1479 1.2324 17.9139C2.34118 17.7588 3.45289 17.6038 4.56168 17.4487Z" fill="#F2F2F2"/>
<path d="M9.69841 22.4719L9.4 22.3636L8.3117 21.9599H5.31885L3.97602 22.308L3.34117 22.4748C3.34117 22.4748 3.33532 22.4748 3.32069 22.4748C3.32069 22.466 3.31776 22.4572 3.31776 22.4485C3.28851 22.232 3.27681 22.0184 3.27973 21.8107C3.30314 19.558 5.01751 17.9343 7.46621 18.695C8.77686 19.1835 9.37367 20.4649 9.60772 21.7931C9.64868 22.0184 9.68086 22.2466 9.69841 22.4719Z" fill="#691E0E"/>
<path d="M31.83 22.1414L31.555 21.9893L30.7446 21.5446L26.7395 21.7728L25.9818 22.2262L25.5986 22.4544V22.4486C25.5664 22.2262 25.5518 22.0068 25.5518 21.7933C25.5518 19.6518 27.1433 18.0573 29.5539 18.6512C30.9172 19.0023 31.6515 20.2983 31.8008 21.6031C31.8242 21.7845 31.8329 21.9629 31.83 22.1414Z" fill="#691E0E"/>
<path d="M31.3828 21.8196C31.3828 23.3526 30.1394 24.5959 28.6064 24.5959C27.679 24.5959 26.857 24.1425 26.3538 23.4433C26.0261 22.9869 25.8301 22.4281 25.8301 21.8196C25.8301 20.2866 27.0734 19.0432 28.6064 19.0432C29.6509 19.0432 30.5636 19.6225 31.0346 20.4767C31.257 20.8746 31.3828 21.331 31.3828 21.8196Z" fill="#333333"/>
<path d="M27.3401 20.1521C27.5362 20.4447 27.7556 20.7138 27.9867 20.9713C28.2149 21.2316 28.4548 21.4774 28.7005 21.7173C28.9492 21.9542 29.2067 22.1854 29.4758 22.4019C29.742 22.6213 30.02 22.829 30.3184 23.0104L29.9088 23.4492C29.704 23.1625 29.4787 22.9021 29.2418 22.6505C29.0077 22.3989 28.759 22.159 28.5045 21.925C28.25 21.6909 27.9896 21.4657 27.7175 21.255C27.4455 21.0415 27.1646 20.8367 26.8604 20.6582L27.3401 20.1521Z" fill="#999999"/>
<path d="M28.8906 19.7454C28.8204 20.0906 28.7882 20.4358 28.7677 20.781C28.7443 21.1262 28.7414 21.4714 28.7443 21.8137C28.7531 22.1589 28.7707 22.5012 28.8087 22.8435C28.8438 23.1858 28.8906 23.5281 28.9725 23.8704L28.3728 23.8909C28.4313 23.5457 28.4547 23.2004 28.4664 22.8552C28.4781 22.51 28.4723 22.1648 28.4576 21.8225C28.443 21.4773 28.4196 21.135 28.3757 20.7927C28.3348 20.4504 28.2821 20.1081 28.1914 19.7658L28.8906 19.7454Z" fill="#999999"/>
<path d="M28.7642 19.7483C28.7262 20.0994 28.7057 20.4475 28.6911 20.7986C28.6735 21.1467 28.6648 21.4978 28.6618 21.8459C28.6589 22.1941 28.6589 22.5422 28.6706 22.8903C28.6794 23.2385 28.694 23.5866 28.7233 23.9318L28.4629 23.9494C28.4951 23.5983 28.5126 23.2502 28.5243 22.8991C28.536 22.551 28.5419 22.1999 28.5419 21.8518C28.5419 21.5036 28.539 21.1555 28.5273 20.8073C28.5155 20.4592 28.5009 20.1111 28.4687 19.7629L28.7642 19.7483Z" fill="#CCCCCC"/>
<path d="M30.2737 20.5528C29.9811 20.7488 29.712 20.9682 29.4545 21.1993C29.1941 21.4275 28.9484 21.6674 28.7085 21.9132C28.4715 22.1618 28.2404 22.4193 28.0239 22.6884C27.8045 22.9547 27.5968 23.2326 27.4154 23.531L26.9766 23.1214C27.2633 22.9166 27.5236 22.6914 27.7752 22.4544C28.0268 22.2204 28.2667 21.9717 28.5008 21.7172C28.7348 21.4626 28.9601 21.2023 29.1707 20.9302C29.3843 20.6581 29.5891 20.3773 29.7675 20.073L30.2737 20.5528Z" fill="#999999"/>
<path d="M30.2123 20.5031C29.9373 20.7225 29.671 20.9507 29.4107 21.1848C29.1503 21.4159 28.8928 21.6558 28.6412 21.8957C28.3896 22.1385 28.141 22.3813 27.9011 22.6329C27.6582 22.8816 27.4183 23.1361 27.1931 23.3994L26.9971 23.2239C27.2691 23.0016 27.5324 22.7675 27.7899 22.5335C28.0473 22.2965 28.3019 22.0566 28.5505 21.8138C28.7992 21.571 29.045 21.3223 29.2878 21.0707C29.5277 20.8191 29.7647 20.5646 29.9928 20.2983L30.2123 20.5031Z" fill="#CCCCCC"/>
<path d="M30.6807 22.1003C30.3355 22.0301 29.9902 21.9979 29.645 21.9775C29.2998 21.9541 28.9546 21.9511 28.6123 21.9541C28.2671 21.9628 27.9248 21.9804 27.5825 22.0184C27.2402 22.0535 26.8979 22.1003 26.5556 22.1822L26.5352 21.5825C26.8804 21.641 27.2256 21.6644 27.5708 21.6761C27.916 21.6878 28.2612 21.682 28.6035 21.6673C28.9487 21.6527 29.291 21.6293 29.6333 21.5854C29.9756 21.5445 30.3179 21.4918 30.6602 21.4011L30.6807 22.1003Z" fill="#999999"/>
<path d="M30.6894 22.0245C30.3383 21.9864 29.9902 21.9659 29.6391 21.9484C29.291 21.9308 28.9399 21.9221 28.5918 21.9162C28.2436 21.9133 27.8955 21.9133 27.5473 21.9221C27.1992 21.9308 26.8511 21.9425 26.5058 21.9718L26.4912 21.7114C26.8423 21.7436 27.1904 21.7612 27.5415 21.7729C27.8896 21.7846 28.2407 21.7904 28.5888 21.7904C28.937 21.7904 29.2851 21.7875 29.6333 21.7758C29.9814 21.7641 30.3295 21.7495 30.6777 21.7173L30.6894 22.0245Z" fill="#CCCCCC"/>
<path d="M30.098 23.3174C29.8523 23.0658 29.5948 22.8259 29.3345 22.5919C29.0741 22.3578 28.8108 22.1267 28.5446 21.9015C28.2783 21.6762 28.0062 21.4568 27.7342 21.2432C27.4592 21.0296 27.1842 20.819 26.8975 20.6201L27.0496 20.4094C27.2983 20.6581 27.5586 20.8921 27.8219 21.1233C28.0823 21.3544 28.3515 21.5796 28.6206 21.802C28.8898 22.0243 29.1618 22.2438 29.4368 22.4544C29.7119 22.668 29.9927 22.8757 30.2794 23.0717L30.098 23.3174Z" fill="#CCCCCC"/>
<path d="M28.6073 19.6372C27.4049 19.6372 26.4248 20.6173 26.4248 21.8197C26.4248 23.0221 27.4049 24.0021 28.6073 24.0021C29.8097 24.0021 30.7897 23.0221 30.7897 21.8197C30.7897 20.6143 29.8097 19.6372 28.6073 19.6372ZM30.2017 22.9372C30.0964 23.0864 29.9706 23.2239 29.8272 23.338C29.5756 23.5399 29.2743 23.6803 28.9437 23.7388C28.8355 23.7564 28.7214 23.7681 28.6073 23.7681C28.5371 23.7681 28.4639 23.7652 28.3966 23.7564C28.0631 23.7213 27.753 23.5984 27.4897 23.4141C27.3376 23.3088 27.203 23.1801 27.0889 23.0367C26.887 22.7851 26.7466 22.4838 26.6881 22.1532C26.6676 22.0449 26.6588 21.9308 26.6588 21.8167C26.6588 21.7436 26.6618 21.6734 26.6705 21.6032C26.7057 21.2843 26.8168 20.9888 26.9894 20.7343C27.1094 20.5558 27.2557 20.4008 27.4253 20.2691C27.6565 20.0907 27.9315 19.9649 28.2269 19.9064C28.3498 19.883 28.4785 19.8683 28.6073 19.8683C28.695 19.8683 28.7799 19.8742 28.8647 19.8859C29.1661 19.9268 29.4469 20.0351 29.6897 20.196C29.8682 20.3159 30.0262 20.4622 30.1549 20.6319C30.3334 20.863 30.4592 21.138 30.5206 21.4335C30.544 21.5564 30.5586 21.6851 30.5586 21.8138C30.5586 21.9016 30.5528 21.9864 30.5411 22.0713C30.4972 22.3931 30.3772 22.6856 30.2017 22.9372Z" fill="#E6E6E6"/>
<path d="M28.9652 21.8771C29.0097 21.6884 28.8929 21.4993 28.7042 21.4547C28.5155 21.4102 28.3264 21.527 28.2818 21.7157C28.2373 21.9044 28.3541 22.0935 28.5428 22.138C28.7315 22.1826 28.9206 22.0658 28.9652 21.8771Z" fill="#999999"/>
<path d="M28.7643 21.7933C28.7643 21.8693 28.7028 21.9337 28.6238 21.9337C28.5478 21.9337 28.4834 21.8723 28.4834 21.7933C28.4834 21.7172 28.5448 21.6528 28.6238 21.6528C28.6999 21.6528 28.7643 21.7172 28.7643 21.7933Z" fill="#E6E6E6"/>
<path d="M29.0047 21.6469C29.0018 21.6381 28.9989 21.6293 28.996 21.6234C28.9492 21.5269 28.8702 21.4508 28.7678 21.4128C28.759 21.4099 28.7502 21.407 28.7444 21.404C28.7063 21.3923 28.6654 21.3865 28.6244 21.3865C28.5571 21.3865 28.4928 21.404 28.4343 21.4333C28.4284 21.4362 28.4255 21.4391 28.4196 21.4421C28.3289 21.4947 28.2587 21.5796 28.2295 21.682V21.6849C28.2207 21.72 28.2148 21.758 28.2148 21.7961C28.2148 21.8604 28.2295 21.9189 28.2558 21.9716V21.9745C28.2997 22.0652 28.3757 22.1354 28.4664 22.1735C28.5133 22.1939 28.5688 22.2056 28.6215 22.2056C28.6683 22.2056 28.7151 22.1969 28.7561 22.1822C28.759 22.1822 28.7619 22.1822 28.7649 22.1793C28.8614 22.1442 28.9375 22.0769 28.9843 21.9862C28.9901 21.9774 28.993 21.9687 28.9989 21.9599C29.0194 21.9101 29.0311 21.8575 29.0311 21.799C29.034 21.7405 29.0223 21.6907 29.0047 21.6469ZM28.7531 22.0535C28.7268 22.0652 28.7005 22.0769 28.6683 22.0798C28.6537 22.0828 28.6391 22.0828 28.6215 22.0828C28.5981 22.0828 28.5747 22.0798 28.5513 22.074C28.5191 22.0681 28.4898 22.0535 28.4635 22.0359C28.4343 22.0155 28.405 21.9891 28.3875 21.9628C28.3699 21.9394 28.3553 21.9102 28.3465 21.878C28.3377 21.8516 28.3348 21.8224 28.3348 21.7931C28.3348 21.7873 28.3348 21.7785 28.3348 21.7726C28.3377 21.7375 28.3465 21.7054 28.3582 21.6761C28.3758 21.6293 28.4079 21.5913 28.446 21.562C28.4635 21.5474 28.4869 21.5328 28.5074 21.524C28.5425 21.5093 28.5835 21.5006 28.6244 21.5006C28.6449 21.5006 28.6654 21.5035 28.6859 21.5064C28.7063 21.5123 28.7268 21.5181 28.7444 21.5269C28.8029 21.5532 28.8526 21.5971 28.8819 21.6527C28.8906 21.6703 28.8994 21.6907 28.9053 21.7112C28.9111 21.7375 28.917 21.7639 28.917 21.7931C28.917 21.8312 28.9111 21.8663 28.8965 21.8984C28.8906 21.916 28.8789 21.9365 28.8672 21.9511C28.8409 21.9979 28.8 22.033 28.7531 22.0535Z" fill="#E6E6E6"/>
<path d="M31.3826 21.8196C31.3826 23.3526 30.1392 24.596 28.6062 24.596C27.6788 24.596 26.8567 24.1425 26.3535 23.4433C27.0001 23.8997 27.7987 24.1396 28.5916 24.1133C29.3113 24.0899 30.0485 23.8295 30.5166 23.2824C30.8706 22.867 31.0403 22.3199 31.0871 21.7758C31.1251 21.3457 31.0871 20.9098 31.0344 20.4797C31.2568 20.8747 31.3826 21.3311 31.3826 21.8196Z" fill="#262626"/>
<path opacity="0.11" d="M30.213 19.7161C29.6279 19.248 28.835 19.049 28.1007 19.1865C27.3635 19.324 26.6965 19.7951 26.3191 20.4416C25.9417 21.0881 25.8627 21.9015 26.1055 22.6094C26.1289 21.6645 26.7082 20.7927 27.4981 20.2719C28.285 19.7482 29.2827 19.5493 30.213 19.7161Z" fill="white"/>
<path d="M9.26463 21.8196C9.26463 23.3526 8.02126 24.5959 6.48827 24.5959C5.56087 24.5959 4.73879 24.1425 4.23559 23.4433C3.90793 22.9869 3.71191 22.4281 3.71191 21.8196C3.71191 20.2866 4.95528 19.0432 6.48827 19.0432C7.53269 19.0432 8.44547 19.6225 8.91648 20.4767C9.13883 20.8746 9.26463 21.331 9.26463 21.8196Z" fill="#333333"/>
<path d="M5.22491 20.1519C5.42092 20.4444 5.64034 20.7136 5.87146 20.971C6.09965 21.2314 6.33955 21.4771 6.58529 21.717C6.83397 21.954 7.09142 22.1851 7.36057 22.4016C7.62679 22.621 7.90472 22.8287 8.20313 23.0101L7.79355 23.449C7.58876 23.1623 7.36349 22.9019 7.12652 22.6503C6.89248 22.3987 6.64381 22.1588 6.38928 21.9247C6.13476 21.6907 5.87438 21.4654 5.60231 21.2548C5.33023 21.0412 5.04938 20.8364 4.74512 20.658L5.22491 20.1519Z" fill="#999999"/>
<path d="M6.77245 19.7451C6.70224 20.0903 6.67006 20.4355 6.64958 20.7808C6.62617 21.126 6.62325 21.4712 6.62617 21.8135C6.63495 22.1587 6.6525 22.501 6.69053 22.8433C6.72564 23.1856 6.77245 23.5279 6.85437 23.8702L6.25463 23.8906C6.31314 23.5454 6.33654 23.2002 6.34824 22.855C6.35995 22.5098 6.3541 22.1646 6.33947 21.8223C6.32484 21.477 6.30144 21.1348 6.25755 20.7925C6.21659 20.4502 6.16393 20.1079 6.07324 19.7656L6.77245 19.7451Z" fill="#999999"/>
<path d="M6.64606 19.7483C6.60803 20.0994 6.58755 20.4475 6.57292 20.7986C6.55537 21.1467 6.54659 21.4978 6.54366 21.8459C6.54074 22.1941 6.54074 22.5422 6.55244 22.8903C6.56122 23.2385 6.57585 23.5866 6.6051 23.9318L6.34473 23.9494C6.37691 23.5983 6.39446 23.2502 6.40616 22.8991C6.41787 22.551 6.42372 22.1999 6.42372 21.8518C6.42372 21.5036 6.42079 21.1555 6.40909 20.8073C6.39739 20.4592 6.38276 20.1111 6.35058 19.7629L6.64606 19.7483Z" fill="#CCCCCC"/>
<path d="M8.1555 20.5528C7.86295 20.7488 7.5938 20.9682 7.33635 21.1993C7.07597 21.4275 6.83022 21.6674 6.59033 21.9132C6.35336 22.1618 6.12224 22.4193 5.90575 22.6884C5.68633 22.9547 5.47862 23.2326 5.29723 23.531L4.8584 23.1214C5.1451 22.9166 5.40548 22.6914 5.65708 22.4544C5.90867 22.2204 6.14857 21.9717 6.38261 21.7172C6.61666 21.4626 6.84193 21.2023 7.05257 20.9302C7.26613 20.6581 7.47092 20.3773 7.64938 20.073L8.1555 20.5528Z" fill="#999999"/>
<path d="M8.0941 20.5029C7.81909 20.7223 7.55287 20.9505 7.29249 21.1845C7.03212 21.4157 6.77467 21.6556 6.52307 21.8955C6.27147 22.1383 6.0228 22.3811 5.7829 22.6327C5.54008 22.8814 5.30019 23.1359 5.07492 23.3992L4.87891 23.2237C5.15098 23.0013 5.41428 22.7673 5.67173 22.5332C5.92918 22.2962 6.18371 22.0564 6.43238 21.8135C6.68105 21.5707 6.9268 21.322 7.16962 21.0704C7.40952 20.8188 7.64649 20.5643 7.87468 20.2981L8.0941 20.5029Z" fill="#CCCCCC"/>
<path d="M8.56251 22.1003C8.21729 22.0301 7.87208 21.9979 7.52686 21.9775C7.18165 21.9541 6.83643 21.9511 6.49414 21.9541C6.14892 21.9628 5.80663 21.9804 5.46434 22.0184C5.12205 22.0535 4.77976 22.1003 4.43747 22.1822L4.41699 21.5825C4.76221 21.641 5.10742 21.6644 5.45264 21.6761C5.79786 21.6878 6.14307 21.682 6.48536 21.6673C6.83058 21.6527 7.17287 21.6293 7.51516 21.5854C7.85745 21.5445 8.19974 21.4918 8.54203 21.4011L8.56251 22.1003Z" fill="#999999"/>
<path d="M8.57122 22.0242C8.22016 21.9862 7.87202 21.9657 7.52095 21.9482C7.17281 21.9306 6.82174 21.9218 6.4736 21.916C6.12546 21.913 5.77732 21.913 5.42917 21.9218C5.08103 21.9306 4.73289 21.9423 4.38767 21.9716L4.37305 21.7112C4.72411 21.7434 5.07226 21.7609 5.42332 21.7726C5.77146 21.7843 6.12253 21.7902 6.47067 21.7902C6.81881 21.7902 7.16696 21.7872 7.5151 21.7755C7.86324 21.7638 8.21138 21.7492 8.55952 21.717L8.57122 22.0242Z" fill="#CCCCCC"/>
<path d="M7.98279 23.3174C7.73704 23.0658 7.47959 22.8259 7.21922 22.5919C6.95884 22.3578 6.69554 22.1267 6.42932 21.9015C6.16309 21.6762 5.89101 21.4568 5.61894 21.2432C5.34393 21.0296 5.06893 20.819 4.78223 20.6201L4.93436 20.4094C5.18303 20.6581 5.4434 20.8921 5.7067 21.1233C5.96708 21.3544 6.23623 21.5796 6.50538 21.802C6.77453 22.0243 7.04661 22.2438 7.32161 22.4544C7.59661 22.668 7.87747 22.8757 8.16417 23.0717L7.98279 23.3174Z" fill="#CCCCCC"/>
<path d="M6.48813 19.637C5.28573 19.637 4.30566 20.617 4.30566 21.8194C4.30566 23.0218 5.28573 24.0019 6.48813 24.0019C7.69054 24.0019 8.6706 23.0218 8.6706 21.8194C8.6706 20.6141 7.69054 19.637 6.48813 19.637ZM8.08256 22.937C7.97724 23.0862 7.85144 23.2237 7.70809 23.3378C7.45649 23.5397 7.15516 23.6801 6.82457 23.7386C6.71633 23.7562 6.60223 23.7679 6.48813 23.7679C6.41792 23.7679 6.34478 23.7649 6.27457 23.7562C5.94105 23.721 5.63094 23.5982 5.36764 23.4139C5.21551 23.3085 5.08094 23.1798 4.96684 23.0365C4.76498 22.7849 4.62455 22.4835 4.56604 22.1529C4.54556 22.0447 4.53678 21.9306 4.53678 21.8165C4.53678 21.7434 4.53971 21.6732 4.54849 21.6029C4.58359 21.2841 4.69476 20.9886 4.86737 20.734C4.98732 20.5556 5.1336 20.4005 5.30328 20.2689C5.5344 20.0904 5.8094 19.9646 6.10488 19.9061C6.22776 19.8827 6.35648 19.8681 6.48521 19.8681C6.57297 19.8681 6.65781 19.8739 6.74266 19.8856C7.04399 19.9266 7.32484 20.0348 7.56766 20.1957C7.74612 20.3157 7.9041 20.462 8.03283 20.6317C8.21129 20.8628 8.33709 21.1378 8.39852 21.4333C8.42193 21.5561 8.43655 21.6849 8.43655 21.8136C8.43655 21.9013 8.4307 21.9862 8.419 22.071C8.37804 22.3928 8.26102 22.6854 8.08256 22.937Z" fill="#E6E6E6"/>
<path d="M6.84822 21.8738C6.89299 21.6851 6.77635 21.4959 6.5877 21.4511C6.39904 21.4063 6.20981 21.523 6.16505 21.7116C6.12028 21.9003 6.23692 22.0895 6.42557 22.1343C6.61423 22.1791 6.80345 22.0624 6.84822 21.8738Z" fill="#999999"/>
<path d="M6.64609 21.7933C6.64609 21.8693 6.58465 21.9337 6.50566 21.9337C6.4296 21.9337 6.36523 21.8723 6.36523 21.7933C6.36523 21.7172 6.42667 21.6528 6.50566 21.6528C6.58465 21.6528 6.64609 21.7172 6.64609 21.7933Z" fill="#E6E6E6"/>
<path d="M6.8856 21.6471C6.88268 21.6383 6.87975 21.6295 6.87683 21.6237C6.83002 21.5271 6.75103 21.4511 6.64863 21.413C6.63986 21.4101 6.63108 21.4072 6.62523 21.4043C6.5872 21.3926 6.54624 21.3867 6.50528 21.3867C6.43799 21.3867 6.37363 21.4043 6.31512 21.4335C6.30927 21.4365 6.30634 21.4394 6.30049 21.4423C6.2098 21.495 6.13959 21.5798 6.11033 21.6822V21.6851C6.10155 21.7202 6.0957 21.7583 6.0957 21.7963C6.0957 21.8607 6.11033 21.9192 6.13666 21.9718V21.9748C6.18054 22.0654 6.25661 22.1357 6.3473 22.1737C6.39411 22.1942 6.4497 22.2059 6.50236 22.2059C6.54916 22.2059 6.59597 22.1971 6.63693 22.1825C6.63986 22.1825 6.64278 22.1825 6.64571 22.1795C6.74225 22.1444 6.81832 22.0772 6.86512 21.9865C6.87098 21.9777 6.8739 21.9689 6.87975 21.9601C6.90023 21.9104 6.91193 21.8577 6.91193 21.7992C6.91486 21.7407 6.90608 21.691 6.8856 21.6471ZM6.63401 22.0537C6.60768 22.0654 6.58135 22.0771 6.54916 22.0801C6.53454 22.083 6.51991 22.083 6.50236 22.083C6.47895 22.083 6.45555 22.0801 6.43214 22.0742C6.39996 22.0684 6.37071 22.0537 6.34438 22.0362C6.31512 22.0157 6.28586 21.9894 6.26831 21.9631C6.25076 21.9396 6.23613 21.9104 6.22735 21.8782C6.21858 21.8519 6.21565 21.8226 6.21565 21.7934C6.21565 21.7875 6.21565 21.7787 6.21565 21.7729C6.21858 21.7378 6.22735 21.7056 6.23906 21.6763C6.25661 21.6295 6.28879 21.5915 6.32682 21.5623C6.34438 21.5476 6.36778 21.533 6.38826 21.5242C6.42337 21.5096 6.46432 21.5008 6.50528 21.5008C6.52576 21.5008 6.54624 21.5037 6.56672 21.5067C6.5872 21.5125 6.60768 21.5184 6.62523 21.5271C6.68374 21.5535 6.73347 21.5974 6.76273 21.6529C6.77151 21.6705 6.78028 21.691 6.78614 21.7115C6.79199 21.7378 6.79784 21.7641 6.79784 21.7934C6.79784 21.8314 6.79199 21.8665 6.77736 21.8987C6.77151 21.9162 6.7598 21.9367 6.7481 21.9514C6.72177 21.9982 6.68081 22.0333 6.63401 22.0537Z" fill="#E6E6E6"/>
<path d="M9.26536 21.8196C9.26536 23.3526 8.022 24.596 6.48901 24.596C5.56161 24.596 4.73952 24.1425 4.23633 23.4433C4.88288 23.8997 5.68155 24.1396 6.47438 24.1133C7.19407 24.0899 7.93131 23.8295 8.3994 23.2824C8.75339 22.867 8.92307 22.3199 8.96988 21.7758C9.00792 21.3457 8.96988 20.9098 8.91722 20.4797C9.13957 20.8747 9.26536 21.3311 9.26536 21.8196Z" fill="#262626"/>
<path opacity="0.11" d="M8.09482 19.7161C7.5097 19.248 6.71688 19.049 5.98256 19.1865C5.24532 19.324 4.57829 19.7951 4.2009 20.4416C3.8235 21.0881 3.74451 21.9015 3.98733 22.6094C4.01074 21.6645 4.59 20.7927 5.3799 20.2719C6.16687 19.7482 7.16449 19.5493 8.09482 19.7161Z" fill="white"/>
<path d="M35.0767 17.5365C33.9504 17.6799 32.7772 17.2469 31.999 16.4073C31.999 16.4043 31.9961 16.4014 31.9932 16.4014C32.6953 16.0942 33.4589 15.9275 34.2254 15.9099C34.3512 16.0211 34.4623 16.1557 34.5589 16.3136C34.6115 16.4014 34.6671 16.5097 34.7256 16.6296C34.8427 16.8783 34.9597 17.1913 35.0767 17.5365Z" fill="#C20500"/>
<path d="M25.6015 22.4544C25.3352 22.4661 25.1831 22.4719 25.1831 22.4719H9.69811C9.67764 22.2467 9.64838 22.0185 9.60742 21.7932H25.5488C25.5488 22.0068 25.5634 22.2262 25.5956 22.4485L25.6015 22.4544Z" fill="#B03317"/>
<path d="M20.8213 17.4751L19.5194 17.5248C19.4872 17.5248 19.458 17.5014 19.458 17.4663L19.4287 16.7232C19.4287 16.6911 19.4521 16.6618 19.4872 16.6618L20.7891 16.6121C20.8213 16.6121 20.8505 16.6355 20.8505 16.6706L20.8798 17.4137C20.8798 17.4488 20.8535 17.4751 20.8213 17.4751Z" fill="#6B1517"/>
<path d="M21.5091 17.0274V17.1152C21.5091 17.1825 21.4564 17.2351 21.3891 17.2351H19.0692C19.0048 17.2351 18.9521 17.1854 18.9492 17.121C18.9492 17.1181 18.9492 17.1152 18.9492 17.1152V17.0274C18.9492 16.9631 19.0019 16.9075 19.0692 16.9075H21.3891C21.4564 16.9075 21.5091 16.9631 21.5091 17.0274Z" fill="#DB3F1D"/>
<path d="M4.56168 17.4487C4.16381 18.028 3.58162 18.4844 2.91167 18.695C2.1481 18.932 1.32894 18.9261 0.521484 18.9495C0.565368 18.8588 0.612177 18.7652 0.664837 18.6745C3.15449 18.657 4.56168 17.4487 4.56168 17.4487Z" fill="#CCCCCC"/>
<path opacity="0.36" d="M34.7256 16.6296C33.6578 16.6589 32.2331 16.4453 31.999 16.4073C31.999 16.4043 31.9961 16.4014 31.9932 16.4014C32.6953 16.0942 33.4589 15.9275 34.2254 15.9099C34.3512 16.0211 34.4623 16.1557 34.5589 16.3136C34.6145 16.4014 34.6701 16.5067 34.7256 16.6296Z" fill="white"/>
<path opacity="0.15" d="M21.5091 17.0274V17.0625C21.3189 17.0362 21.1317 17.0333 20.9415 17.0303C20.2774 17.0216 19.6133 17.0537 18.9521 17.121C18.9521 17.1181 18.9521 17.1152 18.9521 17.1152V17.0274C18.9521 16.9631 19.0048 16.9075 19.0721 16.9075H21.3921C21.4564 16.9075 21.5091 16.9631 21.5091 17.0274Z" fill="white"/>
<path d="M10.6552 16.4745C10.4592 16.0503 10.6347 15.5061 11.0121 15.2341C11.3895 14.962 11.922 14.9474 12.3433 15.1522C12.7645 15.354 13.0746 15.749 13.2356 16.1878C12.9167 16.5096 12.4661 16.7056 12.0156 16.7583C11.568 16.8109 11.0414 16.7144 10.6552 16.4745Z" fill="#A63016"/>
<path opacity="0.35" d="M12.9812 16.1263C12.8495 15.8688 12.6535 15.6465 12.4195 15.4768C12.2176 15.3335 11.9835 15.2281 11.7378 15.2047C11.4921 15.1843 11.2317 15.2516 11.0474 15.4154C10.8192 15.6172 10.7285 15.9332 10.7051 16.2375C11.0913 16.2872 11.4599 16.3516 11.849 16.3516C12.241 16.3486 12.6213 16.2813 12.9812 16.1263Z" fill="#FF7759"/>
<path d="M3.32344 22.472C3.05721 22.4662 0.383253 22.4106 0.0204832 21.884C0.0204832 21.884 0.00292969 21.7231 0.00292969 21.4627C0.00292969 21.4218 0.00292969 21.3808 0.00292969 21.3369C1.06198 21.6646 2.17077 21.8255 3.27956 21.8109C3.27663 22.0186 3.28833 22.2321 3.31759 22.4486C3.32051 22.4574 3.32051 22.4662 3.32344 22.472Z" fill="#B03317"/>
<path d="M1.26677 20.9332C1.22874 21.2082 0.980067 21.4101 0.713841 21.489C0.482722 21.5563 0.231123 21.5476 0.00292969 21.4627C0.00292969 21.1819 0.020483 20.7811 0.0965475 20.3305C0.193091 20.2866 0.29256 20.2545 0.39788 20.2369C0.60852 20.2047 0.83964 20.2428 1.01225 20.3715C1.18778 20.5002 1.29603 20.7196 1.26677 20.9332Z" fill="#6B1517"/>
<path d="M35.8147 21.2405C35.3027 21.4745 33.9774 21.9953 32.0407 22.1269H32.0348C32.0173 22.1269 31.9968 22.1298 31.9763 22.1298C31.9295 22.1328 31.8798 22.1357 31.83 22.1415C31.83 21.9631 31.8213 21.7876 31.8008 21.6062C33.2168 21.4365 34.6005 21.0152 35.8702 20.3687C35.92 20.5734 35.9609 20.7461 35.9902 20.8719C36.0282 21.024 35.9522 21.1761 35.8147 21.2405Z" fill="#B03317"/>
</svg>
