<svg width="48" height="17" viewBox="0 0 48 17" fill="none" xmlns="http://www.w3.org/2000/svg">
<path d="M47.7529 12.0834C47.0703 12.3895 45.3033 13.0705 42.721 13.2426H42.7132C42.6898 13.2426 42.6625 13.2464 42.6352 13.2464C42.5727 13.2503 42.5064 13.2541 42.4401 13.2618L42.0734 13.0628L40.9929 12.4813L35.6528 12.7797L34.6425 13.3727L34.1315 13.6711C33.7766 13.6864 33.5737 13.6941 33.5737 13.6941H12.931L12.5331 13.5525L11.082 13.0246H7.09156L5.30111 13.4798L4.45465 13.6979C4.45465 13.6979 4.44685 13.6979 4.42735 13.6979C4.07238 13.6902 0.507097 13.6175 0.0234041 12.9289C0.0234041 12.9289 0 12.7185 0 12.378C0 12.3244 0 12.2709 0 12.2135C0.00780149 11.8615 0.0351066 11.4024 0.124824 10.9013C0.222342 10.3312 0.393975 9.7 0.690432 9.09553C0.920576 8.61731 1.22873 8.15057 1.63831 7.74122C1.85285 7.52315 2.0986 7.32039 2.37555 7.14058C5.14508 5.33101 8.74547 6.00816 10.731 5.33101C12.7164 4.65385 18.747 0.93907 21.6218 0.307824C25.9595 -0.644783 31.3581 0.896986 32.7429 1.1227C34.1276 1.34842 38.8787 3.70125 41.1412 4.01878C42.2295 4.17181 43.2086 4.2292 44.0316 4.40518C44.6674 4.53908 45.2096 4.74567 45.6309 5.12059C45.6426 5.13207 45.6543 5.13972 45.666 5.1512C45.8182 5.28893 45.9586 5.45343 46.0795 5.64472C46.3019 6.00051 46.5398 6.5782 46.7699 7.24388C47.1912 8.46428 47.5891 9.97927 47.827 10.9472C47.8934 11.215 47.948 11.4407 47.987 11.6052C48.0377 11.8003 47.9363 11.9993 47.7529 12.0834Z" fill="#CC3B1B"/>
<path opacity="0.35" d="M13.6445 11.9189C13.6445 12.0375 13.7264 12.137 13.8357 12.1408C15.4389 12.1944 26.7588 12.5616 29.0642 12.1331C31.549 11.6741 33.7958 10.293 33.7958 10.293C33.7958 10.293 30.7649 10.6143 25.7641 10.8936C21.2354 11.1461 14.9747 11.6128 13.8318 11.697C13.7264 11.7047 13.6445 11.8003 13.6445 11.9189Z" fill="#FF7759"/>
<path opacity="0.35" d="M3.40137 6.84593C3.40137 6.84593 6.61558 6.24147 9.16667 5.98132C11.7139 5.71734 12.4433 5.09375 12.4433 5.09375C12.4433 5.09375 11.5344 6.56666 9.25639 6.63552C6.98225 6.69673 3.40137 6.84593 3.40137 6.84593Z" fill="#FF7759"/>
<path opacity="0.35" d="M3.97852 10.9243C3.97852 10.9243 4.73526 9.13 5.95229 8.51023C7.16933 7.89047 9.31864 7.92107 9.31864 7.92107C9.31864 7.92107 6.89237 7.36634 5.67924 8.12001C4.46221 8.86985 3.97852 10.9243 3.97852 10.9243Z" fill="#FF7759"/>
<path opacity="0.35" d="M35.1377 8.80866C35.1377 8.80866 36.2611 7.82544 38.231 7.91726C40.2048 8.00525 41.1448 9.01907 41.1448 9.01907C41.1448 9.01907 40.4154 7.63798 38.5352 7.30132C36.6551 6.96465 35.1377 8.80866 35.1377 8.80866Z" fill="#FF7759"/>
<path opacity="0.35" d="M45.6699 5.1434L42.6585 5.75169C42.6585 5.75169 24.8516 6.78464 21.4852 7.07922C18.115 7.38145 15.8721 7.58804 15.8721 7.58804C15.8721 7.58804 19.6714 6.57422 24.0363 6.09983C28.4013 5.62544 35.0091 4.7723 35.0091 4.7723C35.0091 4.7723 41.1801 4.41268 44.0316 4.39355H44.0355C44.6713 4.52746 45.2135 4.73405 45.6348 5.10897C45.6465 5.12427 45.6582 5.13192 45.6699 5.1434Z" fill="#FF7759"/>
<path d="M36.5192 3.37217L36.4568 3.42956L35.0057 4.77621L29.8138 5.04784L14.4878 5.85124L12.0771 5.9775L14.3786 4.56197L14.4878 4.49311C14.4878 4.49311 18.7006 2.32775 20.7836 1.56643C22.8705 0.805106 26.8337 0.805106 28.3862 1.04613C29.5525 1.22594 29.8411 1.27184 29.9153 1.2795L29.9387 1.28332L36.5192 3.37217Z" fill="#4D4D4D"/>
<path opacity="0.25" d="M36.5186 3.37217L36.4561 3.42956C35.7501 3.60937 34.9583 3.59024 34.221 3.5252C31.6231 3.29183 29.0603 2.67972 26.4546 2.68737C24.1454 2.69502 21.8362 3.20384 19.7415 4.1641C18.5166 4.72648 17.3191 5.45337 15.9694 5.53754C15.357 5.46485 14.7719 5.07462 14.3779 4.56198L14.4872 4.49311C14.4872 4.49311 18.7 2.32775 20.783 1.56643C22.8699 0.805106 26.833 0.805106 28.3855 1.04613C29.5518 1.22594 29.8405 1.27184 29.9146 1.2795L29.938 1.28332L36.5186 3.37217Z" fill="white"/>
<path d="M11.7803 6.06932L14.4445 4.4319C14.4913 4.40895 18.6885 2.25124 20.752 1.49757C22.8779 0.720945 26.9152 0.743899 28.3935 0.973443C29.5599 1.15325 29.8485 1.19916 29.9226 1.20681L29.9499 1.21064L36.6631 3.33775L35.0365 4.84891H35.0092L11.7803 6.06932ZM25.9712 0.984922C24.2432 0.984922 22.1446 1.15325 20.8105 1.63912C18.7548 2.38896 14.5654 4.53903 14.5264 4.56198L12.3732 5.88568L34.978 4.69971L36.3745 3.40278L29.9031 1.35602C29.8329 1.34454 29.5404 1.30246 28.3779 1.12265C27.8396 1.03848 26.9659 0.984922 25.9712 0.984922Z" fill="#611C0D"/>
<path d="M30.017 13.694H14.4102V4.45103L14.4531 4.42808C14.496 4.40513 18.6932 2.25124 20.7567 1.49757C22.8826 0.720945 26.9198 0.743899 28.3982 0.973443C29.5646 1.15325 29.8532 1.19916 29.9273 1.20681L30.0209 1.22594L29.8532 6.2606L30.017 13.694ZM14.5662 13.6213H29.861L29.6972 6.2606L29.7362 5.04785L29.8571 1.35219C29.7362 1.33306 29.3851 1.2795 28.3709 1.12265C26.9042 0.896929 22.906 0.873975 20.8074 1.63912C18.8609 2.35071 15.007 4.31331 14.5623 4.53902V13.6213H14.5662Z" fill="#611C0D"/>
<path d="M6.08224 7.12524C5.55174 7.88274 4.77549 8.47955 3.88222 8.755C2.86413 9.06489 1.77192 9.05724 0.695312 9.08784C0.753824 8.96924 0.816236 8.84682 0.886449 8.72823C1.08929 8.37626 1.33894 8.03959 1.64319 7.73354C3.12158 7.53077 4.60386 7.32801 6.08224 7.12524Z" fill="#F2F2F2"/>
<path d="M12.9309 13.6939L12.533 13.5523L11.0819 13.0243H7.09147L5.30103 13.4796L4.45457 13.6977C4.45457 13.6977 4.44677 13.6977 4.42726 13.6977C4.42726 13.6862 4.42336 13.6747 4.42336 13.6632C4.38435 13.3801 4.36875 13.1009 4.37265 12.8292C4.40386 9.88342 6.68969 7.76014 9.95462 8.75483C11.7022 9.39373 12.4979 11.0694 12.81 12.8063C12.8646 13.1009 12.9075 13.3993 12.9309 13.6939Z" fill="#691E0E"/>
<path d="M42.4394 13.2617L42.0727 13.0627L40.9922 12.4812L35.6521 12.7796L34.6418 13.3726L34.1308 13.671V13.6634C34.0879 13.3726 34.0684 13.0857 34.0684 12.8064C34.0684 10.006 36.1904 7.92096 39.4046 8.69759C41.2223 9.15667 42.2014 10.8515 42.4004 12.5578C42.4316 12.7949 42.4433 13.0283 42.4394 13.2617Z" fill="#691E0E"/>
<path d="M41.844 12.8411C41.844 14.8458 40.1862 16.4717 38.1422 16.4717C36.9057 16.4717 35.8096 15.8787 35.1387 14.9643C34.7018 14.3675 34.4404 13.6368 34.4404 12.8411C34.4404 10.8364 36.0982 9.21045 38.1422 9.21045C39.5348 9.21045 40.7518 9.96794 41.3799 11.0851C41.6763 11.6054 41.844 12.2022 41.844 12.8411Z" fill="#333333"/>
<path d="M36.4542 10.6606C36.7155 11.0432 37.0081 11.3952 37.3162 11.7318C37.6205 12.0723 37.9404 12.3937 38.268 12.7074C38.5996 13.0173 38.9429 13.3195 39.3017 13.6026C39.6567 13.8896 40.0273 14.1612 40.4251 14.3984L39.879 14.9722C39.606 14.5973 39.3056 14.2568 38.9897 13.9278C38.6776 13.5988 38.346 13.2851 38.0067 12.979C37.6673 12.673 37.3201 12.3784 36.9574 12.1029C36.5946 11.8237 36.2201 11.5559 35.8145 11.3225L36.4542 10.6606Z" fill="#999999"/>
<path d="M38.5211 10.1287C38.4275 10.5801 38.3846 11.0315 38.3573 11.483C38.3261 11.9344 38.3222 12.3858 38.3261 12.8335C38.3378 13.2849 38.3612 13.7325 38.4119 14.1801C38.4587 14.6277 38.5211 15.0753 38.6304 15.5229L37.8307 15.5497C37.9087 15.0983 37.9399 14.6468 37.9555 14.1954C37.9711 13.744 37.9633 13.2925 37.9438 12.8449C37.9243 12.3935 37.8931 11.9459 37.8346 11.4983C37.78 11.0507 37.7098 10.6031 37.5889 10.1554L38.5211 10.1287Z" fill="#999999"/>
<path d="M38.353 10.1326C38.3022 10.5917 38.2749 11.0469 38.2554 11.506C38.232 11.9613 38.2203 12.4204 38.2164 12.8756C38.2125 13.3309 38.2125 13.7861 38.2281 14.2414C38.2398 14.6967 38.2593 15.1519 38.2983 15.6034L37.9512 15.6263C37.9941 15.1672 38.0175 14.712 38.0331 14.2529C38.0487 13.7976 38.0565 13.3385 38.0565 12.8833C38.0565 12.428 38.0526 11.9727 38.037 11.5175C38.0214 11.0622 38.0019 10.607 37.959 10.1517L38.353 10.1326Z" fill="#CCCCCC"/>
<path d="M40.3659 11.1845C39.9758 11.4409 39.6169 11.7278 39.2737 12.03C38.9265 12.3284 38.5988 12.6422 38.279 12.9635C37.963 13.2887 37.6549 13.6254 37.3662 13.9773C37.0736 14.3255 36.7967 14.6889 36.5548 15.0791L35.9697 14.5435C36.352 14.2757 36.6992 13.9812 37.0346 13.6713C37.3701 13.3652 37.69 13.04 38.002 12.7072C38.3141 12.3744 38.6144 12.0339 38.8953 11.6781C39.18 11.3223 39.4531 10.955 39.691 10.5571L40.3659 11.1845Z" fill="#999999"/>
<path d="M40.283 11.1196C39.9163 11.4065 39.5614 11.7049 39.2142 12.011C38.867 12.3132 38.5238 12.6269 38.1883 12.9407C37.8528 13.2582 37.5213 13.5757 37.2014 13.9047C36.8777 14.2299 36.5578 14.5628 36.2574 14.9071L35.9961 14.6775C36.3589 14.3868 36.7099 14.0807 37.0532 13.7747C37.3965 13.4648 37.7358 13.1511 38.0674 12.8335C38.399 12.516 38.7266 12.1908 39.0504 11.8618C39.3702 11.5328 39.6862 11.1999 39.9905 10.8518L40.283 11.1196Z" fill="#CCCCCC"/>
<path d="M40.9082 13.2083C40.4479 13.1165 39.9876 13.0744 39.5274 13.0476C39.0671 13.017 38.6068 13.0132 38.1504 13.017C37.6901 13.0285 37.2337 13.0514 36.7773 13.1012C36.3209 13.1471 35.8646 13.2083 35.4082 13.3154L35.3809 12.5311C35.8411 12.6077 36.3014 12.6383 36.7617 12.6536C37.222 12.6689 37.6823 12.6612 38.1387 12.6421C38.599 12.623 39.0554 12.5924 39.5117 12.535C39.9681 12.4814 40.4245 12.4125 40.8809 12.2939L40.9082 13.2083Z" fill="#999999"/>
<path d="M40.9198 13.1091C40.4517 13.0593 39.9876 13.0325 39.5195 13.0096C39.0553 12.9866 38.5872 12.9752 38.123 12.9675C37.6588 12.9637 37.1946 12.9637 36.7304 12.9752C36.2662 12.9866 35.8021 13.0019 35.3418 13.0402L35.3223 12.6997C35.7904 12.7418 36.2545 12.7647 36.7226 12.78C37.1868 12.7953 37.6549 12.803 38.1191 12.803C38.5833 12.803 39.0475 12.7992 39.5117 12.7839C39.9759 12.7686 40.44 12.7494 40.9042 12.7074L40.9198 13.1091Z" fill="#CCCCCC"/>
<path d="M40.1317 14.7998C39.804 14.4708 39.4607 14.1571 39.1136 13.8511C38.7664 13.545 38.4153 13.2428 38.0604 12.9482C37.7054 12.6536 37.3426 12.3667 36.9799 12.0874C36.6132 11.8081 36.2465 11.5327 35.8643 11.2725L36.0671 10.9971C36.3987 11.3223 36.7458 11.6283 37.0969 11.9305C37.4441 12.2328 37.8029 12.5274 38.1618 12.8181C38.5207 13.1089 38.8834 13.3958 39.2501 13.6713C39.6168 13.9505 39.9912 14.2222 40.3735 14.4785L40.1317 14.7998Z" fill="#CCCCCC"/>
<path d="M38.1434 9.9873C36.5401 9.9873 35.2334 11.2689 35.2334 12.8413C35.2334 14.4137 36.5401 15.6953 38.1434 15.6953C39.7466 15.6953 41.0533 14.4137 41.0533 12.8413C41.0533 11.2651 39.7466 9.9873 38.1434 9.9873ZM40.2693 14.3027C40.1288 14.4978 39.9611 14.6777 39.77 14.8269C39.4345 15.0908 39.0327 15.2745 38.5919 15.351C38.4476 15.3739 38.2955 15.3892 38.1434 15.3892C38.0497 15.3892 37.9522 15.3854 37.8625 15.3739C37.4178 15.328 37.0043 15.1673 36.6533 14.9263C36.4504 14.7886 36.271 14.6203 36.1189 14.4328C35.8497 14.1038 35.6625 13.7097 35.5845 13.2774C35.5572 13.1359 35.5455 12.9867 35.5455 12.8375C35.5455 12.7418 35.5494 12.65 35.5611 12.5582C35.6079 12.1412 35.7561 11.7548 35.9862 11.422C36.1462 11.1886 36.3412 10.9858 36.5675 10.8137C36.8756 10.5803 37.2423 10.4158 37.6363 10.3393C37.8001 10.3087 37.9717 10.2895 38.1434 10.2895C38.2604 10.2895 38.3735 10.2972 38.4866 10.3125C38.8884 10.3661 39.2629 10.5076 39.5866 10.718C39.8246 10.8749 40.0352 11.0662 40.2068 11.2881C40.4448 11.5903 40.6125 11.9499 40.6944 12.3363C40.7256 12.497 40.7451 12.6653 40.7451 12.8336C40.7451 12.9484 40.7373 13.0594 40.7217 13.1703C40.6632 13.5911 40.5033 13.9737 40.2693 14.3027Z" fill="#E6E6E6"/>
<path d="M38.6202 12.9163C38.6796 12.6696 38.5238 12.4223 38.2722 12.364C38.0207 12.3058 37.7685 12.4586 37.7091 12.7053C37.6497 12.9521 37.8055 13.1993 38.0571 13.2576C38.3087 13.3159 38.5608 13.1631 38.6202 12.9163Z" fill="#999999"/>
<path d="M38.353 12.8067C38.353 12.9062 38.2711 12.9903 38.1658 12.9903C38.0643 12.9903 37.9785 12.91 37.9785 12.8067C37.9785 12.7072 38.0604 12.623 38.1658 12.623C38.2672 12.623 38.353 12.7072 38.353 12.8067Z" fill="#E6E6E6"/>
<path d="M38.6733 12.6154C38.6694 12.6039 38.6655 12.5924 38.6616 12.5848C38.5992 12.4585 38.4939 12.3591 38.3574 12.3093C38.3457 12.3055 38.334 12.3017 38.3262 12.2979C38.2754 12.2826 38.2208 12.2749 38.1662 12.2749C38.0765 12.2749 37.9907 12.2979 37.9127 12.3361C37.9049 12.3399 37.901 12.3438 37.8932 12.3476C37.7722 12.4165 37.6786 12.5274 37.6396 12.6613V12.6651C37.6279 12.711 37.6201 12.7608 37.6201 12.8105C37.6201 12.8947 37.6396 12.9712 37.6747 13.04V13.0439C37.7332 13.1625 37.8347 13.2543 37.9556 13.304C38.018 13.3308 38.0921 13.3461 38.1623 13.3461C38.2247 13.3461 38.2871 13.3346 38.3418 13.3155C38.3457 13.3155 38.3496 13.3155 38.3535 13.3117C38.4822 13.2658 38.5836 13.1778 38.646 13.0592C38.6538 13.0477 38.6577 13.0362 38.6655 13.0247C38.6928 12.9597 38.7084 12.8908 38.7084 12.8143C38.7123 12.7378 38.6967 12.6728 38.6733 12.6154ZM38.3379 13.1472C38.3027 13.1625 38.2676 13.1778 38.2247 13.1816C38.2052 13.1854 38.1857 13.1854 38.1623 13.1854C38.1311 13.1854 38.0999 13.1816 38.0687 13.1739C38.0258 13.1663 37.9868 13.1472 37.9517 13.1242C37.9127 13.0974 37.8737 13.063 37.8503 13.0286C37.8269 12.998 37.8074 12.9597 37.7957 12.9176C37.7839 12.8832 37.78 12.8449 37.78 12.8067C37.78 12.799 37.78 12.7875 37.78 12.7799C37.7839 12.734 37.7957 12.6919 37.8113 12.6537C37.8347 12.5924 37.8776 12.5427 37.9283 12.5044C37.9517 12.4853 37.9829 12.4662 38.0102 12.4547C38.057 12.4356 38.1116 12.4241 38.1662 12.4241C38.1935 12.4241 38.2208 12.4279 38.2481 12.4318C38.2754 12.4394 38.3027 12.4471 38.3262 12.4585C38.4042 12.493 38.4705 12.5504 38.5095 12.623C38.5212 12.646 38.5329 12.6728 38.5407 12.6996C38.5485 12.734 38.5563 12.7684 38.5563 12.8067C38.5563 12.8564 38.5485 12.9023 38.529 12.9444C38.5212 12.9674 38.5056 12.9941 38.49 13.0133C38.4549 13.0745 38.4003 13.1204 38.3379 13.1472Z" fill="#E6E6E6"/>
<path d="M41.8431 12.8411C41.8431 14.8457 40.1853 16.4717 38.1413 16.4717C36.9047 16.4717 35.8086 15.8787 35.1377 14.9643C35.9998 15.5611 37.0647 15.8749 38.1218 15.8404C39.0813 15.8098 40.0643 15.4693 40.6885 14.7539C41.1604 14.2107 41.3867 13.4953 41.4491 12.7837C41.4998 12.2213 41.4491 11.6512 41.3789 11.0889C41.6753 11.6053 41.8431 12.2022 41.8431 12.8411Z" fill="#262626"/>
<path opacity="0.11" d="M40.2846 10.0904C39.5045 9.47827 38.4474 9.21812 37.4683 9.39793C36.4853 9.57774 35.5959 10.1937 35.0927 11.0392C34.5895 11.8847 34.4842 12.9482 34.808 13.874C34.8392 12.6383 35.6115 11.4983 36.6647 10.8173C37.714 10.1325 39.0442 9.87232 40.2846 10.0904Z" fill="white"/>
<path d="M12.3528 12.8411C12.3528 14.8458 10.695 16.4717 8.65103 16.4717C7.41449 16.4717 6.31838 15.8787 5.64745 14.9643C5.21057 14.3675 4.94922 13.6368 4.94922 12.8411C4.94922 10.8364 6.60704 9.21045 8.65103 9.21045C10.0436 9.21045 11.2606 9.96794 11.8886 11.0851C12.1851 11.6054 12.3528 12.2022 12.3528 12.8411Z" fill="#333333"/>
<path d="M6.96687 10.6602C7.22822 11.0427 7.52078 11.3947 7.82894 11.7314C8.13319 12.0719 8.45306 12.3932 8.78072 12.7069C9.11228 13.0168 9.45555 13.319 9.81442 13.6021C10.1694 13.8891 10.54 14.1607 10.9378 14.3979L10.3917 14.9718C10.1187 14.5968 9.81832 14.2563 9.50236 13.9273C9.1903 13.5983 8.85873 13.2846 8.51937 12.9785C8.18 12.6725 7.83284 12.3779 7.47007 12.1025C7.1073 11.8232 6.73283 11.5554 6.32715 11.322L6.96687 10.6602Z" fill="#999999"/>
<path d="M9.02993 10.1284C8.93632 10.5799 8.89341 11.0313 8.8661 11.4827C8.8349 11.9342 8.831 12.3856 8.8349 12.8332C8.8466 13.2846 8.87 13.7323 8.92071 14.1799C8.96752 14.6275 9.02993 15.0751 9.13915 15.5227L8.3395 15.5495C8.41752 15.098 8.44872 14.6466 8.46433 14.1952C8.47993 13.7437 8.47213 13.2923 8.45262 12.8447C8.43312 12.3933 8.40191 11.9456 8.3434 11.498C8.28879 11.0504 8.21858 10.6028 8.09766 10.1552L9.02993 10.1284Z" fill="#999999"/>
<path d="M8.86174 10.1323C8.81103 10.5914 8.78372 11.0467 8.76422 11.5058C8.74081 11.961 8.72911 12.4201 8.72521 12.8754C8.72131 13.3306 8.72131 13.7859 8.73691 14.2412C8.74862 14.6964 8.76812 15.1517 8.80713 15.6031L8.45996 15.6261C8.50287 15.167 8.52627 14.7117 8.54188 14.2526C8.55748 13.7974 8.56528 13.3383 8.56528 12.883C8.56528 12.4278 8.56138 11.9725 8.54578 11.5172C8.53017 11.062 8.51067 10.6067 8.46776 10.1515L8.86174 10.1323Z" fill="#CCCCCC"/>
<path d="M10.8737 11.1845C10.4836 11.4409 10.1247 11.7278 9.78147 12.03C9.4343 12.3284 9.10664 12.6422 8.78678 12.9635C8.47082 13.2887 8.16266 13.6254 7.87401 13.9773C7.58145 14.3255 7.3045 14.6889 7.06265 15.0791L6.47754 14.5435C6.85981 14.2757 7.20698 13.9812 7.54244 13.6713C7.87791 13.3652 8.19777 13.04 8.50983 12.7072C8.82189 12.3744 9.12224 12.0339 9.4031 11.6781C9.68785 11.3223 9.9609 10.955 10.1989 10.5571L10.8737 11.1845Z" fill="#999999"/>
<path d="M10.7918 11.1194C10.4251 11.4063 10.0702 11.7047 9.723 12.0108C9.37583 12.313 9.03257 12.6267 8.6971 12.9404C8.36164 13.2579 8.03007 13.5755 7.71021 13.9045C7.38645 14.2297 7.06659 14.5625 6.76623 14.9068L6.50488 14.6773C6.86765 14.3865 7.21872 14.0805 7.56199 13.7744C7.90525 13.4645 8.24462 13.1508 8.57618 12.8333C8.90774 12.5158 9.23541 12.1906 9.55917 11.8616C9.87903 11.5325 10.195 11.1997 10.4992 10.8516L10.7918 11.1194Z" fill="#CCCCCC"/>
<path d="M11.417 13.2083C10.9567 13.1165 10.4964 13.0744 10.0361 13.0476C9.57585 13.017 9.11556 13.0132 8.65918 13.017C8.19889 13.0285 7.7425 13.0514 7.28611 13.1012C6.82973 13.1471 6.37334 13.2083 5.91695 13.3154L5.88965 12.5311C6.34994 12.6077 6.81022 12.6383 7.27051 12.6536C7.7308 12.6689 8.19109 12.6612 8.64747 12.6421C9.10776 12.623 9.56415 12.5924 10.0205 12.535C10.4769 12.4814 10.9333 12.4125 11.3897 12.2939L11.417 13.2083Z" fill="#999999"/>
<path d="M11.4286 13.1088C10.9605 13.0591 10.4963 13.0323 10.0283 13.0093C9.56407 12.9864 9.09598 12.9749 8.63179 12.9673C8.1676 12.9634 7.70341 12.9634 7.23922 12.9749C6.77504 12.9864 6.31085 13.0017 5.85056 13.04L5.83105 12.6995C6.29914 12.7415 6.76333 12.7645 7.23142 12.7798C7.69561 12.7951 8.1637 12.8028 8.62789 12.8028C9.09208 12.8028 9.55627 12.7989 10.0205 12.7836C10.4846 12.7683 10.9488 12.7492 11.413 12.7071L11.4286 13.1088Z" fill="#CCCCCC"/>
<path d="M10.6434 14.7998C10.3157 14.4708 9.97246 14.1571 9.6253 13.8511C9.27813 13.545 8.92706 13.2428 8.5721 12.9482C8.21713 12.6536 7.85436 12.3667 7.49159 12.0874C7.12492 11.8081 6.75825 11.5327 6.37598 11.2725L6.57881 10.9971C6.91038 11.3223 7.25755 11.6283 7.60861 11.9305C7.95578 12.2328 8.31465 12.5274 8.67352 12.8181C9.03238 13.1089 9.39515 13.3958 9.76182 13.6713C10.1285 13.9505 10.503 14.2222 10.8852 14.4785L10.6434 14.7998Z" fill="#CCCCCC"/>
<path d="M8.65117 9.98706C7.04796 9.98706 5.74121 11.2687 5.74121 12.8411C5.74121 14.4134 7.04796 15.6951 8.65117 15.6951C10.2544 15.6951 11.5611 14.4134 11.5611 12.8411C11.5611 11.2649 10.2544 9.98706 8.65117 9.98706ZM10.7771 14.3025C10.6366 14.4976 10.4689 14.6774 10.2778 14.8266C9.94231 15.0906 9.54054 15.2742 9.09975 15.3507C8.95543 15.3737 8.8033 15.389 8.65117 15.389C8.55755 15.389 8.46003 15.3852 8.36641 15.3737C7.92173 15.3278 7.50825 15.1671 7.15718 14.9261C6.95434 14.7884 6.77491 14.62 6.62278 14.4326C6.35363 14.1036 6.16639 13.7095 6.08838 13.2772C6.06107 13.1356 6.04937 12.9864 6.04937 12.8372C6.04937 12.7416 6.05327 12.6498 6.06497 12.558C6.11178 12.141 6.26001 11.7545 6.49015 11.4217C6.65009 11.1883 6.84512 10.9856 7.07137 10.8134C7.37952 10.5801 7.74619 10.4155 8.14017 10.339C8.304 10.3084 8.47563 10.2893 8.64727 10.2893C8.76429 10.2893 8.87741 10.2969 8.99053 10.3122C9.39231 10.3658 9.76678 10.5074 10.0905 10.7178C10.3285 10.8746 10.5391 11.0659 10.7108 11.2878C10.9487 11.59 11.1164 11.9497 11.1984 12.3361C11.2296 12.4967 11.2491 12.6651 11.2491 12.8334C11.2491 12.9482 11.2413 13.0591 11.2257 13.1701C11.171 13.5909 11.015 13.9735 10.7771 14.3025Z" fill="#E6E6E6"/>
<path d="M9.13129 12.9118C9.19098 12.6651 9.03546 12.4176 8.78392 12.3591C8.53238 12.3006 8.28008 12.4531 8.22039 12.6998C8.16069 12.9465 8.31622 13.1939 8.56776 13.2525C8.81929 13.311 9.0716 13.1585 9.13129 12.9118Z" fill="#999999"/>
<path d="M8.86178 12.8064C8.86178 12.9059 8.77986 12.9901 8.67454 12.9901C8.57312 12.9901 8.4873 12.9097 8.4873 12.8064C8.4873 12.707 8.56922 12.6228 8.67454 12.6228C8.77986 12.6228 8.86178 12.707 8.86178 12.8064Z" fill="#E6E6E6"/>
<path d="M9.18113 12.6156C9.17723 12.6042 9.17333 12.5927 9.16943 12.585C9.10702 12.4588 9.0017 12.3593 8.86517 12.3096C8.85347 12.3058 8.84177 12.3019 8.83396 12.2981C8.78326 12.2828 8.72864 12.2751 8.67403 12.2751C8.58432 12.2751 8.4985 12.2981 8.42049 12.3364C8.41268 12.3402 8.40878 12.344 8.40098 12.3478C8.28006 12.4167 8.18644 12.5276 8.14743 12.6615V12.6654C8.13573 12.7113 8.12793 12.761 8.12793 12.8107C8.12793 12.8949 8.14743 12.9714 8.18254 13.0403V13.0441C8.24105 13.1627 8.34247 13.2545 8.46339 13.3043C8.52581 13.331 8.59992 13.3464 8.67013 13.3464C8.73255 13.3464 8.79496 13.3349 8.84957 13.3157C8.85347 13.3157 8.85737 13.3157 8.86127 13.3119C8.98999 13.266 9.09141 13.178 9.15383 13.0594C9.16163 13.0479 9.16553 13.0365 9.17333 13.025C9.20063 12.96 9.21624 12.8911 9.21624 12.8146C9.22014 12.7381 9.20844 12.673 9.18113 12.6156ZM8.84567 13.1474C8.81056 13.1627 8.77545 13.178 8.73255 13.1818C8.71304 13.1857 8.69354 13.1857 8.67013 13.1857C8.63893 13.1857 8.60772 13.1818 8.57652 13.1742C8.53361 13.1665 8.4946 13.1474 8.45949 13.1245C8.42049 13.0977 8.38148 13.0632 8.35807 13.0288C8.33467 12.9982 8.31517 12.96 8.30346 12.9179C8.29176 12.8834 8.28786 12.8452 8.28786 12.8069C8.28786 12.7993 8.28786 12.7878 8.28786 12.7801C8.29176 12.7342 8.30346 12.6922 8.31907 12.6539C8.34247 12.5927 8.38538 12.5429 8.43609 12.5047C8.45949 12.4856 8.4907 12.4664 8.518 12.455C8.56481 12.4358 8.61942 12.4244 8.67403 12.4244C8.70134 12.4244 8.72864 12.4282 8.75595 12.432C8.78326 12.4397 8.81056 12.4473 8.83396 12.4588C8.91198 12.4932 8.97829 12.5506 9.0173 12.6233C9.029 12.6462 9.0407 12.673 9.04851 12.6998C9.05631 12.7342 9.06411 12.7687 9.06411 12.8069C9.06411 12.8567 9.05631 12.9026 9.0368 12.9446C9.029 12.9676 9.0134 12.9944 8.9978 13.0135C8.96269 13.0747 8.90808 13.1206 8.84567 13.1474Z" fill="#E6E6E6"/>
<path d="M12.3538 12.8411C12.3538 14.8457 10.696 16.4717 8.65201 16.4717C7.41548 16.4717 6.31937 15.8787 5.64844 14.9643C6.5105 15.5611 7.57541 15.8749 8.63251 15.8404C9.59209 15.8098 10.5751 15.4693 11.1992 14.7539C11.6712 14.2107 11.8974 13.4953 11.9598 12.7837C12.0106 12.2213 11.9598 11.6512 11.8896 11.0889C12.1861 11.6053 12.3538 12.2022 12.3538 12.8411Z" fill="#262626"/>
<path opacity="0.11" d="M10.7934 10.0904C10.0133 9.47827 8.95616 9.21812 7.97708 9.39793C6.99409 9.57774 6.10472 10.1937 5.60152 11.0392C5.09833 11.8847 4.993 12.9482 5.31677 13.874C5.34797 12.6383 6.12032 11.4983 7.17352 10.8173C8.22282 10.1325 9.55298 9.87232 10.7934 10.0904Z" fill="white"/>
<path d="M46.7686 7.24015C45.2668 7.42761 43.7026 6.8614 42.665 5.76341C42.665 5.75959 42.6611 5.75576 42.6572 5.75576C43.5934 5.35406 44.6115 5.13599 45.6335 5.11304C45.8012 5.25841 45.9495 5.4344 46.0782 5.64099C46.1484 5.75576 46.2225 5.89731 46.3005 6.05417C46.4566 6.37936 46.6126 6.78871 46.7686 7.24015Z" fill="#C20500"/>
<path d="M34.1349 13.671C33.78 13.6863 33.5771 13.694 33.5771 13.694H12.9305C12.9032 13.3994 12.8642 13.101 12.8096 12.8064H34.0647C34.0647 13.0857 34.0842 13.3726 34.1271 13.6634L34.1349 13.671Z" fill="#B03317"/>
<path d="M27.7611 7.1596L26.0252 7.22463C25.9823 7.22463 25.9433 7.19403 25.9433 7.14812L25.9043 6.17638C25.9043 6.1343 25.9355 6.09604 25.9823 6.09604L27.7181 6.03101C27.7611 6.03101 27.8001 6.06161 27.8001 6.10752L27.8391 7.07926C27.8391 7.12517 27.804 7.1596 27.7611 7.1596Z" fill="#6B1517"/>
<path d="M28.6788 6.57433V6.68911C28.6788 6.7771 28.6086 6.84596 28.5188 6.84596H25.4256C25.3397 6.84596 25.2695 6.78092 25.2656 6.69676C25.2656 6.69293 25.2656 6.68911 25.2656 6.68911V6.57433C25.2656 6.49017 25.3358 6.41748 25.4256 6.41748H28.5188C28.6086 6.41748 28.6788 6.49017 28.6788 6.57433Z" fill="#DB3F1D"/>
<path d="M6.08224 7.12524C5.55174 7.88274 4.77549 8.47955 3.88222 8.755C2.86413 9.06489 1.77192 9.05724 0.695312 9.08784C0.753824 8.96924 0.816236 8.84682 0.886449 8.72823C4.20598 8.70527 6.08224 7.12524 6.08224 7.12524Z" fill="#CCCCCC"/>
<path opacity="0.36" d="M46.3005 6.05417C44.8768 6.09243 42.9771 5.81315 42.665 5.76341C42.665 5.75959 42.6611 5.75576 42.6572 5.75576C43.5934 5.35406 44.6115 5.13599 45.6335 5.11304C45.8012 5.25841 45.9495 5.4344 46.0782 5.64099C46.1523 5.75576 46.2264 5.89349 46.3005 6.05417Z" fill="white"/>
<path opacity="0.15" d="M28.6788 6.57433V6.62024C28.4252 6.58581 28.1756 6.58199 27.922 6.57816C27.0366 6.56668 26.1511 6.60877 25.2695 6.69676C25.2695 6.69293 25.2695 6.68911 25.2695 6.68911V6.57433C25.2695 6.49017 25.3397 6.41748 25.4295 6.41748H28.5228C28.6086 6.41748 28.6788 6.49017 28.6788 6.57433Z" fill="white"/>
<path d="M14.2066 5.85137C13.9453 5.29664 14.1793 4.58506 14.6825 4.22926C15.1857 3.87347 15.8956 3.85434 16.4574 4.12214C17.0191 4.38612 17.4325 4.90259 17.6471 5.47645C17.2219 5.89728 16.6212 6.15361 16.0205 6.22247C15.4237 6.29133 14.7215 6.16508 14.2066 5.85137Z" fill="#A63016"/>
<path opacity="0.35" d="M17.3082 5.39581C17.1327 5.05914 16.8713 4.76839 16.5593 4.5465C16.2901 4.35904 15.9781 4.22131 15.6504 4.1907C15.3227 4.16392 14.9756 4.25192 14.7298 4.46616C14.4256 4.73013 14.3046 5.14331 14.2734 5.54119C14.7883 5.60622 15.2798 5.69039 15.7986 5.69039C16.3213 5.68657 16.8284 5.59857 17.3082 5.39581Z" fill="#FF7759"/>
<path d="M4.43125 13.6941C4.07629 13.6864 0.511003 13.6138 0.027311 12.9251C0.027311 12.9251 0.00390625 12.7147 0.00390625 12.3742C0.00390625 12.3207 0.00390625 12.2671 0.00390625 12.2097C1.41598 12.6382 2.89436 12.8486 4.37274 12.8295C4.36884 13.1011 4.38444 13.3804 4.42345 13.6635C4.42735 13.675 4.42735 13.6864 4.43125 13.6941Z" fill="#B03317"/>
<path d="M1.68903 11.6818C1.63832 12.0414 1.30676 12.3054 0.951788 12.4087C0.643629 12.4966 0.308164 12.4852 0.00390625 12.3742C0.00390625 12.007 0.0273106 11.4828 0.12873 10.8937C0.257455 10.8363 0.39008 10.7942 0.530507 10.7712C0.811361 10.7292 1.11952 10.7789 1.34966 10.9472C1.58371 11.1156 1.72804 11.4025 1.68903 11.6818Z" fill="#6B1517"/>
<path d="M47.7532 12.0834C47.0706 12.3895 45.3035 13.0705 42.7212 13.2426H42.7134C42.69 13.2426 42.6627 13.2465 42.6354 13.2465C42.573 13.2503 42.5067 13.2541 42.4404 13.2618C42.4404 13.0284 42.4287 12.7988 42.4014 12.5616C44.2893 12.3398 46.1344 11.7888 47.8273 10.9434C47.8936 11.2112 47.9482 11.4369 47.9872 11.6014C48.0379 11.8003 47.9365 11.9993 47.7532 12.0834Z" fill="#B03317"/>
</svg>
